<svg width="36" height="36" viewBox="0 0 36 36" fill="none" xmlns="http://www.w3.org/2000/svg">
<path d="M31.9785 28.7685H4.02222C3.84142 28.7685 3.69678 28.9131 3.69678 29.0899V31.5006C3.69678 31.6774 3.84142 31.8221 4.02222 31.8221H31.9785C32.1593 31.8221 32.3039 31.6774 32.3039 31.5006V29.0899C32.3039 28.9131 32.1593 28.7685 31.9785 28.7685ZM17.7472 24.3087C17.7773 24.3471 17.8157 24.3782 17.8596 24.3995C17.9034 24.4209 17.9516 24.432 18.0003 24.432C18.0491 24.432 18.0973 24.4209 18.1411 24.3995C18.185 24.3782 18.2234 24.3471 18.2535 24.3087L22.7535 18.6154C22.9182 18.4064 22.7695 18.0971 22.5004 18.0971H19.5231V4.50063C19.5231 4.32384 19.3785 4.1792 19.2017 4.1792H16.791C16.6142 4.1792 16.4695 4.32384 16.4695 4.50063V18.093H13.5003C13.2312 18.093 13.0825 18.4024 13.2472 18.6113L17.7472 24.3087Z" fill="#141414"/>
</svg>
