<svg width="36" height="36" viewBox="0 0 36 36" xmlns="http://www.w3.org/2000/svg">
<g id="&#230;&#159;&#165;&#232;&#175;&#162;&#231;&#187;&#147;&#230;&#158;&#156;">
<path id="Union" fill-rule="evenodd" clip-rule="evenodd" d="M21.8492 19.1038C25.6187 20.002 29.3916 17.6271 30.2762 13.7992C31.1608 9.97124 28.822 6.1399 25.0525 5.24163C21.283 4.34336 17.51 6.71831 16.6255 10.5462C15.7409 14.3742 18.0796 18.2055 21.8492 19.1038ZM21.1628 22.0742C23.3277 22.5901 25.4934 22.3502 27.3915 21.5236L31.446 28.1657L33.9997 26.5582L29.9452 19.916C31.5185 18.5575 32.6933 16.6946 33.2014 14.4962C34.465 9.02775 31.124 3.55442 25.7389 2.27117C20.3539 0.987925 14.964 4.38071 13.7003 9.84917C12.4366 15.3176 15.7777 20.791 21.1628 22.0742ZM9.91231 9.47008H2V12.829H9.91231V9.47008ZM2 20.9007H13.9352V23.7595H2V20.9007ZM25.9064 31.1411H2V33.9999H25.9064V31.1411Z" />
</g>
</svg>
