<svg width="16" height="16" viewBox="0 0 16 16" fill="none" xmlns="http://www.w3.org/2000/svg">
<g id="&#233;&#166;&#150;&#233;&#161;&#181;">
<path id="Vector" d="M14.789 7.89059L8.35305 1.45934C8.30671 1.41291 8.25167 1.37607 8.19108 1.35094C8.13048 1.3258 8.06553 1.31287 7.99993 1.31287C7.93433 1.31287 7.86937 1.3258 7.80878 1.35094C7.74818 1.37607 7.69314 1.41291 7.6468 1.45934L1.21086 7.89059C1.02336 8.07809 0.917114 8.33278 0.917114 8.5984C0.917114 9.14996 1.36555 9.5984 1.91711 9.5984H2.59524V14.1875C2.59524 14.464 2.81868 14.6875 3.09524 14.6875H6.99993V11.1875H8.74993V14.6875H12.9046C13.1812 14.6875 13.4046 14.464 13.4046 14.1875V9.5984H14.0827C14.3484 9.5984 14.6031 9.49371 14.7906 9.30465C15.1796 8.91403 15.1796 8.28121 14.789 7.89059Z" fill="#2783FC"/>
</g>
</svg>
