<svg width="36" height="36" viewBox="0 0 36 36" fill="none" xmlns="http://www.w3.org/2000/svg">
<path d="M32.4035 19.3026H12.5021C11.7727 19.3026 11.1824 18.7123 11.1824 17.9828C11.1824 17.2539 11.7727 16.663 12.5021 16.663H32.4035C33.1332 16.663 33.7235 17.2539 33.7235 17.9828C33.7235 18.7123 33.1332 19.3026 32.4035 19.3026ZM32.4035 8.74432H12.5021C11.7727 8.74432 11.1824 8.15338 11.1824 7.42451C11.1824 6.69568 11.7727 6.10475 12.5021 6.10475H32.4035C33.1332 6.10475 33.7235 6.69568 33.7235 7.42451C33.7235 8.15338 33.1332 8.74432 32.4035 8.74432ZM4.79917 31.1804C3.34144 31.1804 2.15942 29.9986 2.15942 28.541C2.15942 27.0833 3.34144 25.9015 4.79917 25.9015C6.25676 25.9015 7.43874 27.0833 7.43874 28.541C7.43874 29.9986 6.25676 31.1804 4.79917 31.1804ZM4.79917 20.6223C3.34144 20.6223 2.15942 19.4403 2.15942 17.9829C2.15942 16.525 3.34144 15.3432 4.79917 15.3432C6.25676 15.3432 7.43874 16.525 7.43874 17.9829C7.43874 19.4403 6.25676 20.6223 4.79917 20.6223ZM4.79917 10.064C3.34144 10.064 2.15942 8.88225 2.15942 7.42451C2.15942 5.96675 3.34144 4.78491 4.79917 4.78491C6.25676 4.78491 7.43874 5.96671 7.43874 7.42451C7.43874 8.88228 6.25676 10.064 4.79917 10.064ZM12.5021 27.2211H32.4035C33.1332 27.2211 33.7235 27.8114 33.7235 28.5409C33.7235 29.2704 33.1332 29.8607 32.4035 29.8607H12.5021C11.7727 29.8607 11.1824 29.2704 11.1824 28.5409C11.1824 27.8114 11.7726 27.2211 12.5021 27.2211Z" fill="#141414"/>
</svg>
