<svg width="36" height="36" viewBox="0 0 36 36" fill="none" xmlns="http://www.w3.org/2000/svg">
<path d="M10.4057 13.2637L16.3671 9.98775C16.4058 9.96657 16.4379 9.93633 16.4602 9.90002C16.4824 9.86371 16.4942 9.8226 16.4942 9.78075C16.4942 9.73891 16.4824 9.6978 16.4602 9.66149C16.4379 9.62518 16.4058 9.59493 16.3671 9.57376L10.365 6.29383C10.3266 6.27292 10.283 6.2619 10.2386 6.2619C10.1941 6.2619 10.1505 6.27292 10.1121 6.29383L4.15286 9.57376C4.11419 9.59493 4.08212 9.62518 4.05984 9.66149C4.03756 9.6978 4.02584 9.73891 4.02584 9.78075C4.02584 9.8226 4.03756 9.86371 4.05984 9.90002C4.08212 9.93633 4.11419 9.96657 4.15286 9.98775L10.1529 13.2657C10.1912 13.2866 10.2349 13.2976 10.2793 13.2976C10.3237 13.2976 10.3673 13.2866 10.4057 13.2657V13.2637ZM25.9629 13.2637L31.9243 9.98775C31.963 9.96657 31.995 9.93633 32.0173 9.90002C32.0396 9.86371 32.0513 9.8226 32.0513 9.78075C32.0513 9.73891 32.0396 9.6978 32.0173 9.66149C31.995 9.62518 31.963 9.59493 31.9243 9.57376L25.9243 6.29383C25.8857 6.27255 25.8416 6.26132 25.7968 6.26132C25.7519 6.26132 25.7079 6.27255 25.6693 6.29383L19.71 9.57376C19.6713 9.59493 19.6393 9.62518 19.617 9.66149C19.5947 9.6978 19.583 9.73891 19.583 9.78075C19.583 9.8226 19.5947 9.86371 19.617 9.90002C19.6393 9.93633 19.6713 9.96657 19.71 9.98775L25.71 13.2657C25.7486 13.287 25.7926 13.2982 25.8375 13.2982C25.8824 13.2982 25.9264 13.287 25.965 13.2657L25.9629 13.2637ZM25.1936 14.4956L25.1721 21.0155C25.1722 21.0569 25.1608 21.0977 25.1391 21.1338C25.1173 21.1699 25.0859 21.2001 25.0479 21.2215C25.0095 21.2424 24.9659 21.2534 24.9214 21.2534C24.877 21.2534 24.8334 21.2424 24.795 21.2215L18.7929 17.9436C18.7541 17.9227 18.7218 17.8927 18.6992 17.8565C18.6767 17.8204 18.6646 17.7794 18.6643 17.7376L18.6857 11.2177C18.6857 11.0317 18.8979 10.9177 19.065 11.0097L25.0671 14.2897C25.1059 14.3106 25.1382 14.3406 25.1608 14.3767C25.1833 14.4128 25.1954 14.4538 25.1957 14.4956H25.1936ZM10.8064 14.4956L10.8279 21.0155C10.8279 21.1995 11.0379 21.3135 11.205 21.2215L17.2071 17.9436C17.2459 17.9227 17.2782 17.8927 17.3008 17.8565C17.3233 17.8204 17.3354 17.7794 17.3357 17.7376L17.3143 11.2177C17.3143 11.1756 17.3024 11.1341 17.2799 11.0976C17.2573 11.0611 17.2248 11.0308 17.1857 11.0097C17.1476 10.9892 17.1044 10.9784 17.0604 10.9784C17.0163 10.9784 16.9731 10.9892 16.935 11.0097L10.9329 14.2897C10.8941 14.3106 10.8618 14.3406 10.8392 14.3767C10.8167 14.4128 10.8046 14.4538 10.8043 14.4956H10.8064ZM25.05 23.7554C25.0884 23.7766 25.1203 23.8067 25.1424 23.8428C25.1646 23.8789 25.1763 23.9198 25.1764 23.9614L25.1979 30.4813C25.1979 30.5234 25.186 30.5649 25.1634 30.6014C25.1409 30.6379 25.1084 30.6682 25.0693 30.6893L19.0693 33.9672C19.0307 33.9885 18.9867 33.9998 18.9418 34C18.897 34.0002 18.8529 33.9892 18.8141 33.9683C18.7752 33.9473 18.7431 33.9171 18.7209 33.8807C18.6987 33.8443 18.6873 33.8031 18.6879 33.7612L18.6664 27.2414C18.6664 27.1992 18.6783 27.1578 18.7008 27.1213C18.7234 27.0848 18.7559 27.0544 18.795 27.0334L24.795 23.7554C24.8336 23.7341 24.8776 23.7229 24.9225 23.7229C24.9674 23.7229 25.0114 23.7341 25.05 23.7554ZM11.2029 23.7554L17.205 27.0354C17.2438 27.0563 17.2761 27.0863 17.2986 27.1224C17.3212 27.1585 17.3332 27.1995 17.3336 27.2414L17.3121 33.7612C17.3118 33.803 17.2998 33.844 17.2772 33.8802C17.2546 33.9163 17.2224 33.9463 17.1836 33.9672C17.1455 33.9877 17.1022 33.9986 17.0582 33.9986C17.0142 33.9986 16.971 33.9877 16.9329 33.9672L10.9286 30.6893C10.8898 30.6684 10.8575 30.6384 10.8349 30.6022C10.8124 30.5661 10.8003 30.5251 10.8 30.4833L10.8214 23.9634C10.8214 23.7774 11.0336 23.6634 11.2007 23.7554H11.2029ZM32.7707 19.4655L32.8543 19.4935C32.893 19.5149 32.925 19.5453 32.9472 19.5818C32.9694 19.6183 32.981 19.6596 32.9807 19.7015L33 26.2194C32.9999 26.261 32.9882 26.3019 32.966 26.338C32.9438 26.3741 32.912 26.4042 32.8736 26.4254L26.8736 29.7053C26.8348 29.7267 26.7906 29.738 26.7456 29.7381C26.7005 29.7382 26.6563 29.7271 26.6174 29.7059C26.5785 29.6847 26.5464 29.6542 26.5244 29.6175C26.5023 29.5808 26.4912 29.5393 26.4921 29.4973L26.4707 22.9775C26.4707 22.8915 26.52 22.8135 26.5993 22.7695L32.5993 19.4915C32.6379 19.4702 32.6819 19.459 32.7268 19.459C32.7716 19.459 32.8157 19.4702 32.8543 19.4915L32.7707 19.4655ZM3.39857 19.4935L9.40071 22.7735C9.48 22.8135 9.52929 22.8935 9.52929 22.9795L9.50786 29.4993C9.50751 29.5411 9.49547 29.5821 9.47291 29.6183C9.45036 29.6544 9.41809 29.6844 9.37929 29.7053C9.34117 29.7258 9.29794 29.7366 9.25393 29.7366C9.20992 29.7366 9.16668 29.7258 9.12857 29.7053L3.12643 26.4274C3.08803 26.4062 3.05618 26.3761 3.03401 26.34C3.01185 26.3039 3.00013 26.263 3 26.2214L3.02143 19.7015C3.02143 19.5175 3.23143 19.4015 3.39857 19.4935ZM18.0343 18.9195L18.12 18.9475L24.12 22.2275C24.1582 22.2488 24.1898 22.2789 24.2117 22.3151C24.2337 22.3512 24.2452 22.392 24.2452 22.4335C24.2452 22.475 24.2337 22.5158 24.2117 22.5519C24.1898 22.588 24.1582 22.6182 24.12 22.6395L18.1607 25.9154C18.1221 25.9357 18.0786 25.9464 18.0343 25.9464C17.99 25.9464 17.9464 25.9357 17.9079 25.9154L11.9057 22.6395C11.867 22.6183 11.835 22.588 11.8127 22.5517C11.7904 22.5154 11.7787 22.4743 11.7787 22.4325C11.7787 22.3906 11.7904 22.3495 11.8127 22.3132C11.835 22.2769 11.867 22.2466 11.9057 22.2255L17.865 18.9495C17.9034 18.9286 17.947 18.9176 17.9914 18.9176C18.0359 18.9176 18.0795 18.9286 18.1179 18.9495L18.0343 18.9195ZM32.8286 11.0097C32.8677 11.0308 32.9002 11.0611 32.9227 11.0976C32.9453 11.1341 32.9572 11.1756 32.9571 11.2177L32.9764 17.7376C32.9761 17.7794 32.964 17.8204 32.9415 17.8565C32.9189 17.8927 32.8867 17.9227 32.8479 17.9436L26.8479 21.2215C26.8093 21.2423 26.7655 21.2532 26.721 21.2531C26.6765 21.253 26.6327 21.242 26.5942 21.2211C26.5558 21.2002 26.5239 21.1702 26.5018 21.1341C26.4797 21.098 26.4683 21.0571 26.4686 21.0155L26.4471 14.4956C26.4471 14.4096 26.4943 14.3296 26.5757 14.2877L32.5757 11.0097C32.6141 10.9888 32.6577 10.9778 32.7021 10.9778C32.7466 10.9778 32.7902 10.9888 32.8286 11.0097ZM3.42429 11.0117L9.42429 14.2917C9.50571 14.3316 9.55286 14.4116 9.55286 14.4976L9.53143 21.0175C9.5313 21.0591 9.51958 21.1 9.49742 21.1361C9.47525 21.1722 9.4434 21.2023 9.405 21.2235C9.36663 21.2444 9.323 21.2554 9.27857 21.2554C9.23414 21.2554 9.19051 21.2444 9.15214 21.2235L3.15214 17.9456C3.11334 17.9247 3.08107 17.8947 3.05851 17.8585C3.03596 17.8224 3.02392 17.7814 3.02357 17.7396L3.045 11.2197C3.045 11.0337 3.255 10.9197 3.42429 11.0117ZM18.1179 2.03193L24.12 5.30986C24.1587 5.33103 24.1907 5.36127 24.213 5.39758C24.2353 5.43389 24.247 5.47501 24.247 5.51685C24.247 5.55869 24.2353 5.59981 24.213 5.63612C24.1907 5.67243 24.1587 5.70267 24.12 5.72385L18.1607 8.99977C18.1225 9.02109 18.0788 9.03235 18.0343 9.03235C17.9898 9.03235 17.9461 9.02109 17.9079 8.99977L11.9057 5.72185C11.867 5.70067 11.835 5.67043 11.8127 5.63412C11.7904 5.59781 11.7787 5.55669 11.7787 5.51485C11.7787 5.47301 11.7904 5.43189 11.8127 5.39558C11.835 5.35927 11.867 5.32903 11.9057 5.30786L17.865 2.03193C17.9034 2.01102 17.947 2 17.9914 2C18.0359 2 18.0795 2.01102 18.1179 2.03193Z" fill="#333333"/>
</svg>
