<svg width="20" height="20" viewBox="0 0 20 20" fill="none" xmlns="http://www.w3.org/2000/svg">
<g id="&#230;&#156;&#186;&#229;&#143;&#176;&#230;&#142;&#146;&#231;&#168;&#139;">
<path id="Union" fill-rule="evenodd" clip-rule="evenodd" d="M1.71714 1.11108H13.8384C14.1736 1.11108 14.4444 1.35935 14.4444 1.66664V5.55553H1.11108V1.66664C1.11108 1.35935 1.38192 1.11108 1.71714 1.11108ZM2.77775 2.77775V3.88886H3.88886V2.77775H2.77775ZM4.99997 2.77775V3.88886H6.11108V2.77775H4.99997ZM7.2222 2.77775V3.88886H8.33331V2.77775H7.2222ZM1.71714 16.6666C1.38192 16.6666 1.11108 16.4184 1.11108 16.1111V12.2222H8.66523C8.45027 12.8304 8.33331 13.4848 8.33331 14.1666C8.33331 15.0613 8.53472 15.9089 8.89467 16.6666H1.71714ZM3.88886 13.8889H2.77775V15H3.88886V13.8889ZM14.4444 6.66664V8.3398C14.3524 8.33549 14.2598 8.33331 14.1666 8.33331C12.0653 8.33331 10.2235 9.44438 9.19664 11.1111H1.11108V6.66664H14.4444ZM3.88886 8.33331H2.77775V9.44442H3.88886V8.33331ZM6.11108 9.44442V8.33331H4.99997V9.44442H6.11108ZM14.1666 18.8889C16.7747 18.8889 18.8889 16.7747 18.8889 14.1666C18.8889 11.5586 16.7747 9.44442 14.1666 9.44442C11.5586 9.44442 9.44442 11.5586 9.44442 14.1666C9.44442 16.7747 11.5586 18.8889 14.1666 18.8889ZM16.2351 16.0544L16.2363 16.0556C16.2263 16.0668 16.2152 16.0782 16.2032 16.0898C16.1915 16.1019 16.1801 16.113 16.1689 16.123L16.1677 16.1218C15.9709 16.2879 15.5838 16.4457 15.1819 16.0841L13.9851 14.6592C13.6716 14.8967 12.7778 15.1256 12.2753 14.3743C12.1357 14.13 11.9016 13.5507 11.988 13.0516C11.9984 12.9917 12.0708 12.9729 12.1139 13.016L12.7566 13.6588C12.7943 13.6964 12.848 13.713 12.9003 13.7032L13.6451 13.5636C13.661 13.5606 13.6739 13.5477 13.6769 13.5318L13.8165 12.787C13.8263 12.7347 13.8097 12.681 13.7721 12.6433L13.1293 12.0006C13.0862 11.9575 13.105 11.8851 13.1649 11.8747C13.664 11.7883 14.2433 12.0224 14.4876 12.162C15.2389 12.6645 15.01 13.5583 14.7726 13.8718L16.1974 15.0686C16.5591 15.4705 16.4012 15.8576 16.2351 16.0544ZM15.9407 15.3251C16.0823 15.4667 16.0823 15.6964 15.9407 15.838C15.7991 15.9796 15.5694 15.9796 15.4278 15.838C15.2861 15.6964 15.2861 15.4667 15.4278 15.3251C15.5694 15.1834 15.7991 15.1834 15.9407 15.3251Z" fill="#2783FC"/>
</g>
</svg>
