<svg width="18" height="18" viewBox="0 0 18 18" fill="none" xmlns="http://www.w3.org/2000/svg">
<g id="Ellipsis">
<path id="Vector" d="M4.5 9.25C4.5 9.34849 4.5194 9.44602 4.55709 9.53701C4.59478 9.62801 4.65003 9.71069 4.71967 9.78033C4.78931 9.84997 4.87199 9.90522 4.96299 9.94291C5.05398 9.9806 5.15151 10 5.25 10C5.34849 10 5.44602 9.9806 5.53701 9.94291C5.62801 9.90522 5.71069 9.84997 5.78033 9.78033C5.84997 9.71069 5.90522 9.62801 5.94291 9.53701C5.9806 9.44602 6 9.34849 6 9.25C6 9.15151 5.9806 9.05398 5.94291 8.96299C5.90522 8.87199 5.84997 8.78931 5.78033 8.71967C5.71069 8.65003 5.62801 8.59478 5.53701 8.55709C5.44602 8.5194 5.34849 8.5 5.25 8.5C5.15151 8.5 5.05398 8.5194 4.96299 8.55709C4.87199 8.59478 4.78931 8.65003 4.71967 8.71967C4.65003 8.78931 4.59478 8.87199 4.55709 8.96299C4.5194 9.05398 4.5 9.15151 4.5 9.25ZM8.25 9.25C8.25 9.44891 8.32902 9.63968 8.46967 9.78033C8.61032 9.92098 8.80109 10 9 10C9.19891 10 9.38968 9.92098 9.53033 9.78033C9.67098 9.63968 9.75 9.44891 9.75 9.25C9.75 9.05109 9.67098 8.86032 9.53033 8.71967C9.38968 8.57902 9.19891 8.5 9 8.5C8.80109 8.5 8.61032 8.57902 8.46967 8.71967C8.32902 8.86032 8.25 9.05109 8.25 9.25ZM12 9.25C12 9.44891 12.079 9.63968 12.2197 9.78033C12.3603 9.92098 12.5511 10 12.75 10C12.9489 10 13.1397 9.92098 13.2803 9.78033C13.421 9.63968 13.5 9.44891 13.5 9.25C13.5 9.05109 13.421 8.86032 13.2803 8.71967C13.1397 8.57902 12.9489 8.5 12.75 8.5C12.5511 8.5 12.3603 8.57902 12.2197 8.71967C12.079 8.86032 12 9.05109 12 9.25Z" fill="#5B5B5B"/>
</g>
</svg>
