<svg width="16" height="16" viewBox="0 0 16 16" fill="none" xmlns="http://www.w3.org/2000/svg">
<path d="M5.18511 0.888885C4.62618 0.888885 4.17309 1.34198 4.17309 1.9009C4.17309 2.45982 4.62619 2.91292 5.18511 2.91292H10.4633C11.0222 2.91292 11.4753 2.45982 11.4753 1.9009C11.4753 1.34198 11.0222 0.888885 10.4633 0.888885H5.18511Z" fill="#2783FC"/>
<path fill-rule="evenodd" clip-rule="evenodd" d="M2.2222 2.50806H3.41273C3.59245 3.2065 4.22644 3.72258 4.98097 3.72258H10.6675C11.422 3.72258 12.056 3.2065 12.2357 2.50806H13.4262C13.9171 2.50806 14.3151 2.90603 14.3151 3.39695V8.92212C13.5714 8.20898 12.5611 7.77061 11.4482 7.77061C9.16292 7.77061 7.31031 9.61924 7.31031 11.8996C7.31031 12.9571 7.70871 13.9218 8.36391 14.6523H2.2222C1.73128 14.6523 1.33331 14.2543 1.33331 13.7634V3.39695C1.33331 2.90603 1.73128 2.50806 2.2222 2.50806ZM8.6356 6.15147H3.76745V6.96108H8.6356V6.15147ZM3.76745 8.17543H6.60721V8.98505H3.76745V8.17543Z" fill="#2783FC"/>
<path d="M12.6574 13.0363C12.7539 12.9399 12.7539 12.7838 12.6574 12.6874C12.5609 12.5911 12.4043 12.5911 12.3078 12.6874C12.2113 12.7838 12.2113 12.9399 12.3078 13.0363C12.4043 13.1326 12.5609 13.1326 12.6574 13.0363Z" fill="#2783FC"/>
<path fill-rule="evenodd" clip-rule="evenodd" d="M14.6667 11.8996C14.6667 13.6733 13.2258 15.1111 11.4483 15.1111C9.67083 15.1111 8.22991 13.6733 8.22991 11.8996C8.22991 10.126 9.67083 8.68815 11.4483 8.68815C13.2258 8.68815 14.6667 10.126 14.6667 11.8996ZM12.8589 13.1842L12.858 13.1834C12.9713 13.0496 13.0788 12.7864 12.8323 12.513L11.8613 11.6991C12.0231 11.4859 12.1791 10.8781 11.667 10.5363C11.5005 10.4414 11.1057 10.2821 10.7656 10.3409C10.7247 10.348 10.712 10.3973 10.7413 10.4265L11.1794 10.8637C11.205 10.8892 11.2164 10.9258 11.2097 10.9614L11.1145 11.4679C11.1125 11.4787 11.1037 11.4875 11.0928 11.4895L10.5853 11.5844C10.5496 11.5911 10.513 11.5798 10.4873 11.5542L10.0492 11.1171C10.0199 11.0878 9.97054 11.1005 9.96347 11.1413C9.90456 11.4807 10.0642 11.8747 10.1593 12.0408C10.5018 12.5518 11.1109 12.3961 11.3246 12.2346L12.1403 13.2036C12.4142 13.4496 12.678 13.3422 12.8121 13.2293L12.8129 13.2301C12.8205 13.2233 12.8284 13.2158 12.8363 13.2075C12.8445 13.1997 12.852 13.1918 12.8589 13.1842Z" fill="#2783FC"/>
</svg>
