<svg width="16" height="16" viewBox="0 0 16 16" fill="none" xmlns="http://www.w3.org/2000/svg">
<path d="M10.9307 1.33333C10.6212 1.33333 10.3704 1.57584 10.3704 1.87499V3.29166C10.3704 3.59082 10.6212 3.83333 10.9307 3.83333C11.2401 3.83333 11.4909 3.59082 11.4909 3.29166V1.87499C11.4909 1.57584 11.2401 1.33333 10.9307 1.33333Z" fill="#2783FC"/>
<path d="M1.75087 2.16666H3.90575V3.29164C3.90575 3.82092 4.34956 4.25 4.89702 4.25C5.44447 4.25 5.88828 3.82092 5.88828 3.29164V2.16666H9.93942V3.29164C9.93942 3.82092 10.3832 4.25 10.9307 4.25C11.4781 4.25 11.922 3.82092 11.922 3.29164V2.16666H13.8182C14.2942 2.16666 14.6802 2.53979 14.6802 2.99999V5.5H0.888916V2.99999C0.888916 2.53979 1.27486 2.16666 1.75087 2.16666Z" fill="#2783FC"/>
<path fill-rule="evenodd" clip-rule="evenodd" d="M0.888916 6.33333H14.6802V8.53822C13.9939 7.94445 13.0877 7.58333 12.0943 7.58333C10.8758 7.58333 9.78857 8.12654 9.07747 8.97614V8H6.49161V9.66666H8.61872C8.36063 10.1687 8.21551 10.7347 8.21551 11.3333H6.49161V13H8.61872C8.98623 13.7149 9.5828 14.3004 10.3156 14.6667H1.75087C1.27486 14.6667 0.888916 14.2935 0.888916 13.8333V6.33333ZM5.19868 8V9.66666H2.61282V8H5.19868ZM5.19868 11.3333V13H2.61282V11.3333H5.19868Z" fill="#2783FC"/>
<path fill-rule="evenodd" clip-rule="evenodd" d="M12.0943 14.25C13.7605 14.25 15.1111 12.9442 15.1111 11.3333C15.1111 9.7225 13.7605 8.41666 12.0943 8.41666C10.4282 8.41666 9.07747 9.7225 9.07747 11.3333C9.07747 12.9442 10.4282 14.25 12.0943 14.25ZM13.1913 10.6812H10.9973C10.9032 10.6812 10.8406 10.6232 10.8406 10.5362C10.8406 10.4493 10.9032 10.3913 10.9973 10.3913H11.1697C11.248 9.9855 11.6241 9.66666 12.0943 9.66666C12.5645 9.66666 12.9406 9.9855 13.0189 10.3913H13.1913C13.2854 10.3913 13.3481 10.4493 13.3481 10.5362C13.3481 10.6232 13.2854 10.6812 13.1913 10.6812ZM10.4488 13C10.4017 13 10.3704 12.971 10.3704 12.9275C10.4017 12.5797 10.6525 12.3478 10.9973 12.1884V13H10.4488ZM13.0346 13V12.1304C13.4578 12.2754 13.7712 12.5362 13.8182 12.9275C13.8182 12.971 13.7869 13 13.7398 13H13.0346ZM13.0346 10.8261C13.0346 11.1739 12.8152 11.5652 12.4861 11.7391C12.4391 11.7681 12.4077 11.8116 12.4077 11.8551C12.4077 11.942 12.4704 12 12.5488 12.0145C12.6036 12.029 12.6585 12.0399 12.7133 12.0507C12.7682 12.0616 12.8231 12.0725 12.8779 12.087V13H11.154V12.1304C11.3107 12.087 11.4674 12.0435 11.6398 12.0145C11.7182 12.0145 11.7809 11.942 11.7809 11.8696C11.7809 11.8116 11.7495 11.7681 11.7025 11.7391C11.3734 11.5507 11.154 11.1739 11.154 10.8261H13.0346Z" fill="#2783FC"/>
<path d="M4.897 1.33333C4.58757 1.33333 4.33673 1.57584 4.33673 1.87499V3.29166C4.33673 3.59082 4.58757 3.83333 4.897 3.83333C5.20642 3.83333 5.45727 3.59082 5.45727 3.29166V1.87499C5.45727 1.57584 5.20642 1.33333 4.897 1.33333Z" fill="#2783FC"/>
</svg>
