<svg width="36" height="36" viewBox="0 0 36 36" fill="none" xmlns="http://www.w3.org/2000/svg">
<path d="M20 7.5C20 6.67157 20.6716 6 21.5 6H24V1H21.5C17.9101 1 15 3.91015 15 7.5V12.8027C15.8825 12.2922 16.9071 12 18 12C18.7013 12 19.3744 12.1203 20 12.3414V7.5Z" fill="black"/>
<path d="M7.5 16L12.3414 16C12.1203 16.6256 12 17.2987 12 18C12 19.0929 12.2922 20.1175 12.8027 21H7.5C3.91015 21 1 18.0899 1 14.5V12H6V14.5C6 15.3284 6.67157 16 7.5 16Z" fill="black"/>
<path d="M15.5 28.5V23.456C16.2611 23.8053 17.1078 24 18 24C18.8922 24 19.7389 23.8053 20.5 23.456V28.5C20.5 32.0899 17.5899 35 14 35H11.5V30H14C14.8284 30 15.5 29.3284 15.5 28.5Z" fill="black"/>
<path d="M28 20.75H23.3341C23.7597 19.9262 24 18.9912 24 18C24 17.2043 23.8451 16.4448 23.5639 15.75L28 15.75C31.5899 15.75 34.5 18.6601 34.5 22.25V24.75H29.5V22.25C29.5 21.4216 28.8284 20.75 28 20.75Z" fill="black"/>
<path d="M22 18C22 20.2091 20.2091 22 18 22C15.7909 22 14 20.2091 14 18C14 15.7909 15.7909 14 18 14C20.2091 14 22 15.7909 22 18ZM17 18C17 18.5523 17.4477 19 18 19C18.5523 19 19 18.5523 19 18C19 17.4477 18.5523 17 18 17C17.4477 17 17 17.4477 17 18Z" fill="black"/>
</svg>
