<svg width="36" height="36" viewBox="0 0 36 36" fill="none" xmlns="http://www.w3.org/2000/svg">
<path d="M34 18C34 26.8366 26.8366 34 18 34C9.16344 34 2 26.8366 2 18C2 9.16344 9.16344 2 18 2C26.8366 2 34 9.16344 34 18Z" fill="white"/>
<path d="M18 32C10.268 32 4 25.732 4 18C4 10.268 10.268 4 18 4C25.732 4 32 10.268 32 18C32 25.732 25.732 32 18 32ZM18 34C26.8366 34 34 26.8366 34 18C34 9.16344 26.8366 2 18 2C9.16344 2 2 9.16344 2 18C2 26.8366 9.16344 34 18 34Z" fill="#2783FC"/>
<path d="M24.6427 14.4287H23.3034C23.2123 14.4287 23.1266 14.4734 23.073 14.5466L17.9998 21.5394L12.9266 14.5466C12.873 14.4734 12.7873 14.4287 12.6962 14.4287H11.357C11.2409 14.4287 11.173 14.5609 11.2409 14.6555L17.5373 23.3359C17.7659 23.6501 18.2337 23.6501 18.4605 23.3359L24.757 14.6555C24.8266 14.5609 24.7587 14.4287 24.6427 14.4287V14.4287Z" fill="#2783FC"/>
</svg>
