<svg width="16" height="16" viewBox="0 0 16 16" fill="none" xmlns="http://www.w3.org/2000/svg">
<path d="M4.24998 1.93464C4.24998 1.35712 4.71639 0.888885 5.29165 0.888885H10.7083C11.2836 0.888885 11.75 1.35712 11.75 1.93464C11.75 2.51215 11.2836 2.98039 10.7083 2.98039H5.29165C4.71639 2.98039 4.24998 2.51215 4.24998 1.93464Z" fill="#2783FC"/>
<path fill-rule="evenodd" clip-rule="evenodd" d="M2.16665 2.56209H3.46914C3.65417 3.2837 4.30674 3.81699 5.08331 3.81699H10.9166C11.6932 3.81699 12.3458 3.2837 12.5308 2.56209H13.8333C14.2935 2.56209 14.6666 2.93668 14.6666 3.39869V14.2745C14.6666 14.7365 14.2935 15.1111 13.8333 15.1111H2.16665C1.70644 15.1111 1.33331 14.7365 1.33331 14.2745V3.39869C1.33331 2.93668 1.70644 2.56209 2.16665 2.56209ZM12.0127 6.4423L8.40953 9.38143L6.95455 8.12939L4.72504 9.99458L4.19159 9.35181L6.96208 7.034L8.42377 8.29177L11.4872 5.79299L12.0127 6.4423ZM4.24998 11.7647H11.75V12.6013H4.24998V11.7647Z" fill="#2783FC"/>
</svg>
