<svg width="16" height="17" viewBox="0 0 16 17" fill="none" xmlns="http://www.w3.org/2000/svg">
<g id="Setting" clip-path="url(#clip0_142_37003)">
<path id="Vector" d="M15.3559 10.4206L14.189 9.47613C14.2442 9.15567 14.2727 8.82846 14.2727 8.50126C14.2727 8.17405 14.2442 7.84685 14.189 7.52639L15.3559 6.58188C15.4439 6.51055 15.5069 6.41554 15.5365 6.30949C15.5661 6.20344 15.5609 6.09137 15.5216 5.98819L15.5056 5.94434C15.1843 5.09432 14.7033 4.30635 14.0857 3.61848L14.0536 3.58306C13.9787 3.49966 13.8788 3.43971 13.7672 3.41111C13.6556 3.3825 13.5374 3.38659 13.4283 3.42283L11.9799 3.91027C11.4454 3.49536 10.8486 3.16815 10.2037 2.93877L9.92397 1.50514C9.90286 1.39727 9.84759 1.29803 9.76549 1.2206C9.68339 1.14318 9.57835 1.09124 9.46432 1.07168L9.41622 1.06324C8.48804 0.9047 7.51175 0.9047 6.58356 1.06324L6.53546 1.07168C6.42143 1.09124 6.31639 1.14318 6.23429 1.2206C6.15219 1.29803 6.09692 1.39727 6.07582 1.50514L5.79433 2.94552C5.15456 3.17495 4.55877 3.50198 4.0306 3.91364L2.57151 3.42283C2.46242 3.3863 2.34417 3.38207 2.23247 3.41069C2.12078 3.43931 2.02093 3.49943 1.94619 3.58306L1.91412 3.61848C1.29725 4.30683 0.816284 5.09468 0.494223 5.94434L0.478189 5.98819C0.398019 6.19902 0.463937 6.43514 0.643873 6.58188L1.82504 7.53651C1.76981 7.8536 1.74309 8.17743 1.74309 8.49957C1.74309 8.8234 1.76981 9.14724 1.82504 9.46264L0.643873 10.4173C0.555857 10.4886 0.492863 10.5836 0.463267 10.6897C0.433671 10.7957 0.438875 10.9078 0.478189 11.011L0.494223 11.0548C0.816683 11.9049 1.29414 12.6891 1.91412 13.3807L1.94619 13.4161C2.02111 13.4995 2.12096 13.5594 2.23259 13.588C2.34422 13.6166 2.46238 13.6126 2.57151 13.5763L4.0306 13.0855C4.5615 13.4987 5.15476 13.8259 5.79433 14.0536L6.07582 15.494C6.09692 15.6019 6.15219 15.7011 6.23429 15.7785C6.31639 15.856 6.42143 15.9079 6.53546 15.9275L6.58356 15.9359C7.52028 16.0953 8.47951 16.0953 9.41622 15.9359L9.46432 15.9275C9.57835 15.9079 9.68339 15.856 9.76549 15.7785C9.84759 15.7011 9.90286 15.6019 9.92397 15.494L10.2037 14.0604C10.8483 13.8316 11.4485 13.5033 11.9799 13.0889L13.4283 13.5763C13.5374 13.6128 13.6556 13.6171 13.7673 13.5885C13.879 13.5598 13.9789 13.4997 14.0536 13.4161L14.0857 13.3807C14.7056 12.6875 15.1831 11.9049 15.5056 11.0548L15.5216 11.011C15.6018 10.8035 15.5358 10.5674 15.3559 10.4206V10.4206ZM12.9241 7.72541C12.9686 7.98009 12.9918 8.24152 12.9918 8.50295C12.9918 8.76437 12.9686 9.0258 12.9241 9.28048L12.8065 9.95682L14.1373 11.0346C13.9356 11.4746 13.6809 11.8911 13.3784 12.2759L11.7251 11.721L11.1657 12.1562C10.7399 12.4868 10.266 12.7465 9.75294 12.9287L9.07417 13.1698L8.75527 14.8059C8.25211 14.8598 7.74411 14.8598 7.24095 14.8059L6.92205 13.1665L6.24863 12.9219C5.74089 12.7397 5.26878 12.48 4.84655 12.1511L4.28714 11.7143L2.62317 12.2742C2.32031 11.888 2.06733 11.4714 1.86423 11.0329L3.2093 9.94501L3.0935 9.27036C3.05075 9.01905 3.02759 8.75931 3.02759 8.50295C3.02759 8.24489 3.04897 7.98684 3.0935 7.73553L3.2093 7.06088L1.86423 5.97301C2.06555 5.5328 2.32031 5.11789 2.62317 4.73165L4.28714 5.29161L4.84655 4.85478C5.26878 4.52588 5.74089 4.26614 6.24863 4.08399L6.92384 3.8428L7.24273 2.2034C7.74335 2.14943 8.25465 2.14943 8.75705 2.2034L9.07595 3.83943L9.75472 4.08062C10.266 4.26277 10.7417 4.52251 11.1675 4.85309L11.7269 5.28824L13.3802 4.73334C13.683 5.11958 13.936 5.53617 14.1391 5.97469L12.8083 7.05245L12.9241 7.72541ZM8.00167 5.36582C6.27001 5.36582 4.86615 6.69488 4.86615 8.33428C4.86615 9.97368 6.27001 11.3027 8.00167 11.3027C9.73334 11.3027 11.1372 9.97368 11.1372 8.33428C11.1372 6.69488 9.73334 5.36582 8.00167 5.36582ZM9.41266 9.67009C9.2276 9.8458 9.00766 9.98513 8.76551 10.0801C8.52336 10.175 8.26377 10.2237 8.00167 10.2233C7.46899 10.2233 6.96837 10.026 6.59069 9.67009C6.40509 9.49489 6.25792 9.28667 6.15763 9.05742C6.05735 8.82817 6.00593 8.58241 6.00634 8.33428C6.00634 7.82998 6.21478 7.35604 6.59069 6.99848C6.96837 6.64091 7.46899 6.44526 8.00167 6.44526C8.53436 6.44526 9.03497 6.64091 9.41266 6.99848C9.59826 7.17368 9.74543 7.3819 9.84572 7.61114C9.946 7.84039 9.99742 8.08615 9.99701 8.33428C9.99701 8.83858 9.78857 9.31253 9.41266 9.67009Z" fill="#A9CDFE"/>
</g>
<defs>
<clipPath id="clip0_142_37003">
<rect width="16" height="16" fill="white" transform="translate(0 0.5)"/>
</clipPath>
</defs>
</svg>
