<svg width="36" height="36" viewBox="0 0 36 36" fill="none" xmlns="http://www.w3.org/2000/svg">
<path d="M12.375 15.4688L12.375 20.5312C12.375 21.1535 12.8777 21.6562 13.5 21.6562H32.625C33.2473 21.6562 33.75 21.1535 33.75 20.5312V15.4688C33.75 14.8465 33.2473 14.3438 32.625 14.3438L13.5 14.3438C12.8777 14.3438 12.375 14.8465 12.375 15.4688ZM2.25 4.64062L2.25 9.70312C2.25 10.3254 2.75273 10.8281 3.375 10.8281L32.625 10.8281C33.2473 10.8281 33.75 10.3254 33.75 9.70313V4.64063C33.75 4.01836 33.2473 3.51563 32.625 3.51563L3.375 3.51562C2.75273 3.51562 2.25 4.01836 2.25 4.64062ZM22.5 26.2969V31.3594C22.5 31.9816 23.0027 32.4844 23.625 32.4844H32.625C33.2473 32.4844 33.75 31.9816 33.75 31.3594V26.2969C33.75 25.6746 33.2473 25.1719 32.625 25.1719H23.625C23.0027 25.1719 22.5 25.6746 22.5 26.2969Z" fill="black" fill-opacity="0.85"/>
</svg>
