<svg width="16" height="16" viewBox="0 0 16 16" fill="none" xmlns="http://www.w3.org/2000/svg">
<path fill-rule="evenodd" clip-rule="evenodd" d="M1.33331 2.22222C1.33331 1.73133 1.73132 1.33333 2.2222 1.33333H13.7778C14.2686 1.33333 14.6666 1.73133 14.6666 2.22222V11.1111C14.6666 11.602 14.2686 12 13.7778 12H2.2222C1.73132 12 1.33331 11.602 1.33331 11.1111V2.22222ZM3.55554 3.11111C3.31009 3.11111 3.11109 3.31011 3.11109 3.55555C3.11109 3.80099 3.31009 3.99999 3.55554 3.99999H5.33331C5.57876 3.99999 5.77776 3.80099 5.77776 3.55555C5.77776 3.31011 5.57876 3.11111 5.33331 3.11111H3.55554ZM12.0517 8.26671L10.8112 5.02452L9.29599 8.66091L8.41307 7.83691L7.59406 9.17469L6.51354 8.54437L4.88887 6.59461L3.21406 8.60438L3.8969 9.17339L4.88887 7.98318L5.93075 9.23339L7.89788 10.3809L8.60263 9.2297L9.62455 10.1835L10.776 7.41992L11.4402 9.15559H12.8889V8.26671H12.0517ZM4.88887 13.3333C4.39795 13.3333 3.99998 13.7313 3.99998 14.2222C3.99998 14.7131 4.39795 15.1111 4.88887 15.1111H11.1111C11.602 15.1111 12 14.7131 12 14.2222C12 13.7313 11.602 13.3333 11.1111 13.3333H4.88887Z" fill="#2783FC"/>
</svg>
