<svg width="18" height="18" viewBox="0 0 18 18" fill="none" xmlns="http://www.w3.org/2000/svg">
<g id="&#231;&#148;&#168;&#230;&#136;&#183;&#230;&#137;&#139;&#229;&#134;&#140;">
<path id="Vector" d="M16.4286 2H12.3429C11.4661 2 10.6089 2.28096 9.87143 2.81099L9 3.43467L8.12857 2.81099C7.39181 2.28106 6.53371 1.99948 5.65714 2H1.57143C1.25536 2 1 2.28494 1 2.63763V13.9556C1 14.3083 1.25536 14.5932 1.57143 14.5932H5.65714C6.53393 14.5932 7.39107 14.8742 8.12857 15.4042L8.92143 15.9741C8.94464 15.99 8.97143 16 8.99821 16C9.025 16 9.05179 15.992 9.075 15.9741L9.86786 15.4042C10.6071 14.8742 11.4661 14.5932 12.3429 14.5932H16.4286C16.7446 14.5932 17 14.3083 17 13.9556V2.63763C17 2.28494 16.7446 2 16.4286 2ZM5.65714 13.1586H2.28571V3.43467H5.65714C6.28929 3.43467 6.90357 3.63592 7.43393 4.01651L8.30536 4.64019L8.42857 4.72986V13.9357C7.57857 13.4256 6.62857 13.1586 5.65714 13.1586ZM15.7143 13.1586H12.3429C11.3714 13.1586 10.4214 13.4256 9.57143 13.9357V4.72986L9.69464 4.64019L10.5661 4.01651C11.0964 3.63592 11.7107 3.43467 12.3429 3.43467H15.7143V13.1586ZM6.94464 5.9852H3.62679C3.55714 5.9852 3.5 6.05295 3.5 6.13464V7.03131C3.5 7.11301 3.55714 7.18076 3.62679 7.18076H6.94286C7.0125 7.18076 7.06964 7.11301 7.06964 7.03131V6.13464C7.07143 6.05295 7.01429 5.9852 6.94464 5.9852ZM10.9286 6.13464V7.03131C10.9286 7.11301 10.9857 7.18076 11.0554 7.18076H14.3714C14.4411 7.18076 14.4982 7.11301 14.4982 7.03131V6.13464C14.4982 6.05295 14.4411 5.9852 14.3714 5.9852H11.0554C10.9857 5.9852 10.9286 6.05295 10.9286 6.13464ZM6.94464 8.77484H3.62679C3.55714 8.77484 3.5 8.84258 3.5 8.92428V9.82095C3.5 9.90265 3.55714 9.9704 3.62679 9.9704H6.94286C7.0125 9.9704 7.06964 9.90265 7.06964 9.82095V8.92428C7.07143 8.84258 7.01429 8.77484 6.94464 8.77484ZM14.3732 8.77484H11.0554C10.9857 8.77484 10.9286 8.84258 10.9286 8.92428V9.82095C10.9286 9.90265 10.9857 9.9704 11.0554 9.9704H14.3714C14.4411 9.9704 14.4982 9.90265 14.4982 9.82095V8.92428C14.5 8.84258 14.4429 8.77484 14.3732 8.77484Z" fill="#2783FC"/>
</g>
</svg>
