<svg width="36" height="36" viewBox="0 0 36 36" xmlns="http://www.w3.org/2000/svg">
<path d="M10.2221 10C10.2221 11.5822 10.6782 13.129 11.5328 14.4446C12.3875 15.7602 13.6022 16.7855 15.0233 17.391C16.4445 17.9965 18.0083 18.155 19.517 17.8463C21.0257 17.5376 22.4115 16.7757 23.4993 15.6569C24.587 14.538 25.3277 13.1126 25.6278 11.5607C25.9279 10.0089 25.7739 8.40034 25.1852 6.93853C24.5966 5.47672 23.5997 4.22729 22.3207 3.34824C21.0417 2.46919 19.5379 2 17.9997 2C16.9783 2 15.9669 2.20693 15.0233 2.60896C14.0797 3.011 13.2223 3.60028 12.5001 4.34315C11.7779 5.08601 11.205 5.96793 10.8141 6.93853C10.4233 7.90914 10.2221 8.94942 10.2221 10ZM25.0928 19.76H24.4551C24.1905 19.7667 23.9305 19.8322 23.6929 19.952C23.6929 19.952 23.1796 20.256 22.7129 20.464C21.2345 21.0985 19.6483 21.4248 18.0463 21.424C16.4434 21.4354 14.8552 21.1087 13.3798 20.464C12.9131 20.256 12.3843 19.952 12.3843 19.952C12.1503 19.822 11.8879 19.7559 11.6221 19.76H10.9532C9.60783 20.0126 8.34796 20.616 7.29401 21.5124C6.24006 22.4088 5.42726 23.5683 4.93333 24.88C4.31417 26.4839 3.99743 28.1943 4.00002 29.92C4.02694 30.1715 4.11148 30.4129 4.24668 30.6242C4.38188 30.8356 4.56389 31.011 4.77777 31.136C4.77777 31.136 9.13322 34 17.9997 34C26.8661 34 31.2216 31.136 31.2216 31.136C31.4375 31.0095 31.6207 30.8316 31.756 30.6172C31.8914 30.4029 31.9748 30.1583 31.9993 29.904C32.0162 28.2059 31.7097 26.5209 31.0971 24.944C30.6234 23.6096 29.8211 22.4245 28.7686 21.5046C27.7162 20.5847 26.4496 19.9615 25.0928 19.696V19.76Z"/>
</svg>
